# xmcd
#
# Track frame offsets: 
#        150
#        3426
#        37509
#        39167
#        44700
#        47213
#        66259
#        69873
#        98959
#        108674
#        127396
#        128669
#        135445
#        157891
#        162364
#        165996
#        180279
#        186727
#        201527
#        207827
#        229161
#        235568
#        241147
#        259834
#
# Disc length: 3622 seconds
#
# Revision: 3
# Processed by: cddbd v1.5.2PL0 Copyright (c) Steve Scherf et al.
# Submitted via: ExactAudioCopy v0.99pb5
#
DISCID=480e2418
DTITLE=Magdalena Kozena, Alessandro de Marchi - Vivaldi: Juditha trium
DTITLE=phans [CD 3)
DYEAR=2000
DGENRE=Classical
TTITLE0=Holofernes, Juditha (recit.): Haec in crastinum serva: Ah, nim
TTITLE0=is vere
TTITLE1=Holofernes (aria): Noli o cora te adorantis
TTITLE2=Juditha, Holofernes (recit.): Tibi dona salutis
TTITLE3=Chorus (aria): Plena nectare non mero
TTITLE4=Holofernes (recit.): Tormenta mentis tuae fugiant a corde
TTITLE5=Juditha (aria): Vivat in pace, et pax regnet sincera
TTITLE6=Juditha (recit.): Sic in Pace inter hostes
TTITLE7=Vagaus (aria): Umbrae carae, auare adorante
TTITLE8=Vagaus, Juditha (recit.): Quae fortunato es tu vaga Matrona
TTITLE9=Abra (aria): Non ita reducem
TTITLE10=Abra (recit.): Jam pergo, postes claudo
TTITLE11=Juditha (aria) Summe Astrorum Creator
TTITLE12=Juditha (aria): In somno profundo
TTITLE13=Juditha (recit.): Impli, indgni Tiranni
TTITLE14=Juditha, Abra (recit.): Abra accipe munus
TTITLE15=Abra (aria): Si fulgida per te
TTITLE16=Vagaus (recit.): Jam non procul ab axe
TTITLE17=Vagaus (aria): Armate face, et anguibus
TTITLE18=Ozias (recit.): Quam insolita luce
TTITLE19=Ozias (aria): Gaude felix
TTITLE20=Ozias (recit.): Ita decreto aeterno
TTITLE21=Chorus (aria): Salve invicta Juditha formosa
TTITLE22=Vagaus (aria bis): Matrona inimica
TTITLE23=Chorus, Vagaus (aria bis): O servi, volate
EXTD=http://domibus-eternis.blogspot.com/
EXTT0=
EXTT1=
EXTT2=
EXTT3=
EXTT4=
EXTT5=
EXTT6=
EXTT7=
EXTT8=
EXTT9=
EXTT10=
EXTT11=
EXTT12=
EXTT13=
EXTT14=
EXTT15=
EXTT16=
EXTT17=
EXTT18=
EXTT19=
EXTT20=
EXTT21=
EXTT22=
EXTT23=
PLAYORDER=
